<svg width="16" height="17" viewBox="0 0 16 17" fill="none" xmlns="http://www.w3.org/2000/svg">
<path fill-rule="evenodd" clip-rule="evenodd" d="M4.71056 0.296359C4.32195 -0.09607 3.68879 -0.0991658 3.29636 0.289444C2.90393 0.678055 2.90083 1.31121 3.28944 1.70364L6.43639 4.88151H1.6C0.716344 4.88151 0 5.6049 0 6.49724V15.3837C0 16.2761 0.716344 16.9994 1.6 16.9994H14.4C15.2837 16.9994 16 16.2761 16 15.3837V6.49724C16 5.6049 15.2837 4.88151 14.4 4.88151H9.56361L12.7106 1.70364C13.0992 1.31121 13.0961 0.678055 12.7036 0.289444C12.3112 -0.0991658 11.6781 -0.09607 11.2894 0.296359L8 3.61813L4.71056 0.296359Z" fill="white"/>
</svg>
