<svg width="24" height="24" viewBox="0 0 24 24" fill="none" xmlns="http://www.w3.org/2000/svg">
<path d="M14 11C14 10.4477 13.5523 10 13 10H3C2.44772 10 2 10.4477 2 11V11C2 11.5523 2.44772 12 3 12H13C13.5523 12 14 11.5523 14 11V11ZM14 7C14 6.44772 13.5523 6 13 6H3C2.44772 6 2 6.44772 2 7V7C2 7.55228 2.44772 8 3 8H13C13.5523 8 14 7.55228 14 7V7ZM2 15C2 15.5523 2.44772 16 3 16H9C9.55228 16 10 15.5523 10 15V15C10 14.4477 9.55228 14 9 14H3C2.44772 14 2 14.4477 2 15V15ZM19.8473 12.2617C20.2413 11.8473 20.9019 11.847 21.2962 12.261L21.3437 12.3108C21.7113 12.6968 21.7115 13.3034 21.3441 13.6896L16.0662 19.2394C15.6725 19.6534 15.0126 19.654 14.6182 19.2408L11.7059 16.1897C11.3374 15.8036 11.3371 15.1961 11.7052 14.8096L11.7533 14.7591C12.1469 14.3458 12.8061 14.3452 13.2004 14.7579L15.3429 17L19.8473 12.2617Z" fill="white"/>
</svg>
